<?xml version="1.0" encoding="UTF-8"?>
<svg id="Layer_1" data-name="Layer 1" xmlns="http://www.w3.org/2000/svg" xmlns:xlink="http://www.w3.org/1999/xlink" version="1.1" viewBox="0 0 375.56 68.89">
  <defs>
    <style>
      .cls-1 {
        clip-path: url(#clippath);
      }

      .cls-2, .cls-3 {
        fill: none;
      }

      .cls-2, .cls-4 {
        stroke-width: 0px;
      }

      .cls-3 {
        stroke: #00adef;
      }

      .cls-4 {
        fill: #00adef;
      }
    </style>
    <clipPath id="clippath">
      <rect class="cls-2" x=".48" y="1.53" width="374" height="80.71"/>
    </clipPath>
  </defs>
  <g>
    <path class="cls-4" d="M43.65,42.13v-11.32h4.27c3.43,0,5.39,2.41,5.39,5.66s-1.96,5.66-5.39,5.66h-4.27ZM47.91,41.01c2.67,0,4.11-1.82,4.11-4.54s-1.44-4.54-4.11-4.54h-3.06v9.08h3.06Z"/>
    <path class="cls-4" d="M55.83,42.13v-11.32h7.97v1.12h-6.77v3.64h5.75v1.11h-5.75v4.33h6.77v1.12h-7.97Z"/>
    <path class="cls-4" d="M73.77,32.51l-.94.71c-.73-.93-1.85-1.5-3.21-1.5-1.27,0-2.5.49-2.5,1.85s1.19,1.65,2.72,2.04c2.09.53,4.11,1.09,4.11,3.35,0,2.04-1.67,3.37-4.15,3.37-2.02,0-3.54-.88-4.39-2.16l1.04-.73c.78,1.22,2.11,1.77,3.47,1.77,1.65,0,2.79-.8,2.79-2.19,0-1.5-1.36-1.77-3.26-2.21-1.77-.41-3.55-1.02-3.55-3.09s1.67-3.11,3.81-3.11c1.7,0,3.13.71,4.06,1.9Z"/>
    <path class="cls-4" d="M84.44,33.43c-.71-1.04-1.82-1.68-3.31-1.68-2.52,0-4.16,1.84-4.16,4.71s1.67,4.74,4.13,4.74c1.44,0,2.63-.65,3.35-1.7l.99.73c-.95,1.31-2.45,2.11-4.3,2.11-3.3,0-5.44-2.52-5.44-5.86s2.14-5.86,5.42-5.86c1.92,0,3.31.82,4.27,2.09l-.93.73Z"/>
    <path class="cls-4" d="M95.73,42.13l-1.38-3.4h-5.39l-1.38,3.4h-1.26l4.69-11.32h1.36l4.69,11.32h-1.34ZM91.7,32.02l-2.28,5.59h4.49l-2.21-5.59Z"/>
    <path class="cls-4" d="M106.34,42.13l-2.57-4.79h-3.65v4.79h-1.19v-11.32h4.83c2.18,0,3.64,1.24,3.64,3.2,0,1.56-.95,2.67-2.4,3.13l2.7,5h-1.36ZM103.72,31.93h-3.6v4.28h3.65c1.48,0,2.36-.87,2.36-2.12s-.95-2.16-2.41-2.16Z"/>
    <path class="cls-4" d="M118.99,32.7l-.95.71c-.71-1.04-1.87-1.67-3.33-1.67-2.55,0-4.13,1.9-4.13,4.71s1.58,4.74,4.16,4.74c2.18,0,3.76-1.39,3.89-3.62h-3.5v-1.12h4.71c.03.2.05.44.05.71,0,2.77-1.89,5.17-5.13,5.17s-5.46-2.53-5.46-5.88,2.14-5.85,5.44-5.85c1.85,0,3.3.8,4.25,2.09Z"/>
    <path class="cls-4" d="M130.28,42.13l-1.38-3.4h-5.39l-1.38,3.4h-1.26l4.69-11.32h1.36l4.69,11.32h-1.34ZM126.25,32.02l-2.28,5.59h4.49l-2.21-5.59Z"/>
    <path class="cls-4" d="M138.06,42.13v-11.32h7.97v1.12h-6.77v3.64h5.75v1.11h-5.75v4.33h6.77v1.12h-7.97Z"/>
    <path class="cls-4" d="M148.6,42.13v-11.32h1.19v10.2h6.48v1.12h-7.67Z"/>
    <path class="cls-4" d="M162.73,42.13v-11.32h1.19v11.32h-1.19Z"/>
    <path class="cls-4" d="M174.71,42.13l-6.43-9.89v9.89h-1.14v-11.32h1.53l6.27,9.66v-9.66h1.16v11.32h-1.39Z"/>
    <path class="cls-4" d="M180.54,31.93v3.64h5.73v1.11h-5.73v5.46h-1.21v-11.32h7.96v1.12h-6.75Z"/>
    <path class="cls-4" d="M194.16,42.34c-3.3,0-5.44-2.52-5.44-5.86s2.14-5.86,5.44-5.86,5.44,2.5,5.44,5.86-2.14,5.86-5.44,5.86ZM194.16,31.75c-2.58,0-4.17,1.9-4.17,4.73s1.58,4.73,4.17,4.73,4.16-1.92,4.16-4.73-1.6-4.73-4.16-4.73Z"/>
    <path class="cls-4" d="M209.51,42.13l-2.57-4.79h-3.66v4.79h-1.19v-11.32h4.83c2.18,0,3.64,1.24,3.64,3.2,0,1.56-.95,2.67-2.4,3.13l2.7,5h-1.36ZM206.89,31.93h-3.6v4.28h3.66c1.48,0,2.36-.87,2.36-2.12s-.95-2.16-2.41-2.16Z"/>
    <path class="cls-4" d="M223.54,42.13v-10.08l-4.03,10.08h-1.1l-4.05-10.11v10.11h-1.16v-11.32h1.85l3.93,9.83,3.94-9.83h1.78v11.32h-1.17Z"/>
    <path class="cls-4" d="M227.94,42.13v-11.32h7.97v1.12h-6.76v3.64h5.75v1.11h-5.75v4.33h6.76v1.12h-7.97Z"/>
    <path class="cls-4" d="M251.09,33.43c-.71-1.04-1.82-1.68-3.32-1.68-2.52,0-4.16,1.84-4.16,4.71s1.67,4.74,4.13,4.74c1.44,0,2.63-.65,3.35-1.7l.99.73c-.95,1.31-2.45,2.11-4.3,2.11-3.3,0-5.44-2.52-5.44-5.86s2.14-5.86,5.42-5.86c1.92,0,3.31.82,4.27,2.09l-.93.73Z"/>
    <path class="cls-4" d="M258.93,42.34c-3.3,0-5.44-2.52-5.44-5.86s2.14-5.86,5.44-5.86,5.44,2.5,5.44,5.86-2.14,5.86-5.44,5.86ZM258.93,31.75c-2.58,0-4.17,1.9-4.17,4.73s1.58,4.73,4.17,4.73,4.16-1.92,4.16-4.73-1.6-4.73-4.16-4.73Z"/>
    <path class="cls-4" d="M277.2,42.13v-10.08l-4.03,10.08h-1.1l-4.05-10.11v10.11h-1.16v-11.32h1.85l3.93,9.83,3.94-9.83h1.78v11.32h-1.17Z"/>
    <path class="cls-4" d="M286.18,37.58h-3.38v4.56h-1.19v-11.32h4.57c2.55,0,3.89,1.36,3.89,3.38s-1.34,3.38-3.89,3.38ZM286.2,36.45c1.8,0,2.62-.92,2.62-2.26s-.82-2.26-2.62-2.26h-3.4v4.52h3.4Z"/>
    <path class="cls-4" d="M292.23,42.13v-11.32h1.19v10.2h6.48v1.12h-7.67Z"/>
    <path class="cls-4" d="M301.77,42.13v-11.32h7.97v1.12h-6.76v3.64h5.75v1.11h-5.75v4.33h6.76v1.12h-7.97Z"/>
    <path class="cls-4" d="M316.27,31.93v10.2h-1.21v-10.2h-3.96v-1.12h9.14v1.12h-3.98Z"/>
    <path class="cls-4" d="M326.62,42.34c-3.3,0-5.44-2.52-5.44-5.86s2.14-5.86,5.44-5.86,5.44,2.5,5.44,5.86-2.14,5.86-5.44,5.86ZM326.62,31.75c-2.58,0-4.16,1.9-4.16,4.73s1.58,4.73,4.16,4.73,4.17-1.92,4.17-4.73-1.6-4.73-4.17-4.73Z"/>
  </g>
  <g class="cls-1">
    <rect class="cls-3" x=".98" y="2.03" width="373" height="65" rx="30" ry="30"/>
  </g>
</svg>