<?xml version="1.0" encoding="UTF-8"?>
<svg id="Layer_1" data-name="Layer 1" xmlns="http://www.w3.org/2000/svg" xmlns:xlink="http://www.w3.org/1999/xlink" version="1.1" viewBox="0 0 375.6 68.9">
  <defs>
    <style>
      .cls-1 {
        clip-path: url(#clippath);
      }

      .cls-2 {
        fill: none;
      }

      .cls-2, .cls-3 {
        stroke-width: 0px;
      }

      .cls-4 {
        fill: #fff;
        stroke: #00adef;
      }

      .cls-3 {
        fill: #00adef;
      }
    </style>
    <clipPath id="clippath">
      <rect class="cls-2" x=".5" y="1.5" width="374" height="66"/>
    </clipPath>
  </defs>
  <g class="cls-1">
    <rect class="cls-4" x="1" y="2" width="373" height="65" rx="30" ry="30"/>
  </g>
  <g>
    <path class="cls-3" d="M105.5,42.1h-4.3v-11.3h4.3c1.7,0,3,.5,3.9,1.6,1,1,1.4,2.4,1.4,4.1s-.5,3-1.4,4.1c-1,1-2.3,1.6-3.9,1.6ZM102.4,41h3.1c1.3,0,2.3-.4,3-1.2s1.1-1.9,1.1-3.3-.4-2.5-1.1-3.3c-.7-.8-1.7-1.2-3-1.2h-3.1v9.1h0Z"/>
    <path class="cls-3" d="M121.4,42.1h-8v-11.3h7.8v1.1h-6.6v3.6h5.8v1.1h-5.8v4.3h6.8v1.1h0Z"/>
    <path class="cls-3" d="M127.2,30.5c1.7,0,3.1.6,4.1,1.9l-.9.7c-.8-1-1.9-1.5-3.2-1.5s-1.3.1-1.8.5c-.5.3-.7.8-.7,1.4s0,.5.2.7c0,.2.2.4.3.5.1.1.3.2.6.4s.5.2.7.3c.2,0,.5.1.9.2.5.1,1,.2,1.3.3s.7.2,1.1.4.7.4,1,.6.4.5.6.8c.2.3.2.7.2,1.2,0,1-.4,1.8-1.1,2.5s-1.8.9-3,.9-1.8-.2-2.6-.6c-.8-.4-1.3-.9-1.8-1.6l1-.7c.4.6.9,1,1.5,1.3.6.3,1.3.4,2,.4s1.5-.2,2-.6.8-.9.8-1.6-.4-1.3-1.1-1.6c-.4-.2-1.1-.3-2.1-.6-.5-.1-1-.2-1.3-.4s-.7-.3-1.1-.5-.7-.5-.8-.9c-.2-.4-.3-.8-.3-1.3,0-1,.4-1.7,1.1-2.3.7-.5,1.6-.8,2.7-.8h0Z"/>
    <path class="cls-3" d="M142.9,32.7l-.9.7c-.8-1.1-1.9-1.7-3.3-1.7s-2.3.4-3,1.3-1.1,2-1.1,3.4.4,2.6,1.1,3.5,1.8,1.3,3,1.3,2.6-.6,3.4-1.7l1,.7c-1,1.4-2.4,2.1-4.3,2.1s-2.9-.5-3.9-1.7c-1-1.1-1.5-2.5-1.5-4.2s.5-3.1,1.5-4.2,2.3-1.7,3.9-1.7,3.2.7,4.3,2.1h0Z"/>
    <path class="cls-3" d="M154.6,42.1h-1.3l-1.4-3.4h-5.4l-1.4,3.4h-1.3l4.7-11.3h1.4l4.7,11.3h0ZM151.4,37.6l-2.2-5.6-2.3,5.6h4.5Z"/>
    <path class="cls-3" d="M165.2,42.1h-1.4l-2.6-4.8h-3.6v4.8h-1.2v-11.3h4.8c1.1,0,2,.3,2.6.9s1,1.4,1,2.3-.2,1.4-.6,2-1,.9-1.8,1.2l2.7,5h0ZM163.7,34c0-.7-.2-1.2-.6-1.6-.4-.4-1-.6-1.8-.6h-3.6v4.3h3.6c.7,0,1.3-.2,1.7-.6.4-.4.6-.9.6-1.5h0Z"/>
    <path class="cls-3" d="M172.3,30.5c1.8,0,3.2.7,4.2,2.1l-.9.7c-.8-1.1-1.9-1.7-3.3-1.7s-2.3.4-3,1.3-1.1,2-1.1,3.4.4,2.6,1.1,3.4,1.8,1.3,3,1.3,2-.3,2.7-1,1.1-1.5,1.2-2.6h-3.5v-1.1h4.7c0,.2,0,.4,0,.7,0,1.5-.5,2.7-1.4,3.7s-2.2,1.5-3.7,1.5-3-.6-4-1.7-1.5-2.5-1.5-4.2.5-3.1,1.5-4.2,2.3-1.6,3.9-1.6h0Z"/>
    <path class="cls-3" d="M189.1,42.1h-1.3l-1.4-3.4h-5.4l-1.4,3.4h-1.3l4.7-11.3h1.4l4.7,11.3h0ZM186,37.6l-2.2-5.6-2.3,5.6h4.5Z"/>
    <path class="cls-3" d="M204.6,32.7l-.9.7c-.8-1.1-1.9-1.7-3.3-1.7s-2.3.4-3,1.3-1.1,2-1.1,3.4.4,2.6,1.1,3.5,1.8,1.3,3,1.3,2.6-.6,3.4-1.7l1,.7c-1,1.4-2.4,2.1-4.3,2.1s-2.9-.5-3.9-1.7c-1-1.1-1.5-2.5-1.5-4.2s.5-3.1,1.5-4.2,2.3-1.7,3.9-1.7,3.2.7,4.3,2.1h0Z"/>
    <path class="cls-3" d="M216.2,42.1h-1.3l-1.4-3.4h-5.4l-1.4,3.4h-1.3l4.7-11.3h1.4l4.7,11.3h0ZM213.1,37.6l-2.2-5.6-2.3,5.6h4.5Z"/>
    <path class="cls-3" d="M225.6,31.7c.7.6,1,1.4,1,2.5s-.3,1.8-1,2.5c-.7.6-1.6.9-2.9.9h-3.4v4.6h-1.2v-11.3h4.6c1.2,0,2.2.3,2.9.9h0ZM219.3,36.4h3.4c.9,0,1.5-.2,2-.6.4-.4.6-1,.6-1.7s-.2-1.2-.6-1.7c-.4-.4-1.1-.6-2-.6h-3.4v4.5Z"/>
    <path class="cls-3" d="M229,30.1l-.5-.5c.6-.6,1.1-1.3,1.5-2l1.2.2c-.2.4-.4.8-.9,1.2s-.9.8-1.4,1.1h0ZM229.9,42.1h-1.2v-11.3h1.2v11.3Z"/>
    <path class="cls-3" d="M241.1,31.9h-4v10.2h-1.2v-10.2h-4v-1.1h9.1v1.1h0Z"/>
    <path class="cls-3" d="M252.1,30.8v7.1c0,1.3-.4,2.4-1.3,3.2s-1.9,1.2-3.3,1.2-2.4-.4-3.3-1.2c-.8-.8-1.3-1.9-1.3-3.2v-7.1h1.2v7.1c0,1,.3,1.8.9,2.4s1.4.9,2.4.9,1.8-.3,2.4-.9c.6-.6.9-1.4.9-2.4v-7.1s1.2,0,1.2,0Z"/>
    <path class="cls-3" d="M262.8,42.1h-7.7v-11.3h1.2v10.2h6.5v1.1Z"/>
    <path class="cls-3" d="M274.5,36.4c0,1.7-.5,3.1-1.5,4.2-1,1.1-2.3,1.7-3.9,1.7s-3-.5-3.9-1.7c-1-1.1-1.5-2.5-1.5-4.2s.5-3.1,1.5-4.2,2.3-1.6,3.9-1.6,3,.5,3.9,1.6c1,1.1,1.5,2.5,1.5,4.2ZM272,39.8c.8-.9,1.1-2,1.1-3.4s-.4-2.6-1.1-3.4-1.8-1.3-3-1.3-2.3.4-3,1.3c-.8.9-1.1,2-1.1,3.4s.4,2.6,1.1,3.4,1.8,1.3,3,1.3,2.3-.4,3-1.3h0Z"/>
  </g>
</svg>