<?xml version="1.0" encoding="UTF-8"?>
<svg id="Layer_1" data-name="Layer 1" xmlns="http://www.w3.org/2000/svg" version="1.1" viewBox="0 0 375.56 67.04">
  <defs>
    <style>
      .cls-1 {
        fill: none;
      }

      .cls-1, .cls-2 {
        stroke-width: 0px;
      }

      .cls-3 {
        fill: #172b54;
        stroke: #fff;
      }

      .cls-4 {
        isolation: isolate;
      }

      .cls-2 {
        fill: #fff;
      }
    </style>
  </defs>
  <path class="cls-3" d="M30.98,6h313c16.57,0,30,11.36,30,25.37v4.23c0,14.01-13.43,25.37-30,25.37H30.98C14.41,60.96.98,49.6.98,35.59v-4.23C.98,17.36,14.41,6,30.98,6Z"/>
  <g class="cls-4">
    <g class="cls-4">
      <path class="cls-2" d="M21.7,41.94v-13.04h4.92c3.95,0,6.21,2.78,6.21,6.52s-2.26,6.52-6.21,6.52h-4.92ZM26.62,40.65c3.08,0,4.74-2.1,4.74-5.23s-1.67-5.23-4.74-5.23h-3.53v10.46h3.53Z"/>
      <path class="cls-2" d="M35.74,41.94v-13.04h9.18v1.29h-7.79v4.19h6.62v1.28h-6.62v4.99h7.79v1.29s-9.18,0-9.18,0Z"/>
      <path class="cls-2" d="M56.41,30.86l-1.08.82c-.84-1.07-2.13-1.73-3.7-1.73-1.46,0-2.88.56-2.88,2.13s1.37,1.9,3.13,2.35c2.41.61,4.74,1.26,4.74,3.86,0,2.35-1.92,3.88-4.78,3.88-2.33,0-4.08-1.01-5.06-2.49l1.2-.84c.9,1.41,2.43,2.04,4,2.04,1.9,0,3.21-.92,3.21-2.52,0-1.73-1.57-2.04-3.76-2.55-2.04-.47-4.09-1.18-4.09-3.56s1.92-3.58,4.39-3.58c1.96,0,3.61.82,4.68,2.19Z"/>
      <path class="cls-2" d="M68.71,31.92c-.82-1.2-2.1-1.94-3.81-1.94-2.9,0-4.8,2.12-4.8,5.43s1.92,5.46,4.76,5.46c1.67,0,3.03-.75,3.86-1.96l1.14.84c-1.09,1.51-2.82,2.43-4.95,2.43-3.8,0-6.27-2.9-6.27-6.75s2.47-6.75,6.24-6.75c2.21,0,3.83.94,4.92,2.41l-1.07.84h-.01Z"/>
      <path class="cls-2" d="M81.71,41.94l-1.59-3.92h-6.21l-1.59,3.92h-1.45l5.4-13.04h1.57l5.4,13.04h-1.54.01ZM77.07,30.29l-2.63,6.44h5.17s-2.55-6.44-2.55-6.44Z"/>
      <path class="cls-2" d="M93.94,41.94l-2.96-5.52h-4.21v5.52h-1.37v-13.04h5.56c2.51,0,4.19,1.43,4.19,3.69,0,1.8-1.09,3.08-2.77,3.61l3.11,5.76h-1.57,0ZM90.92,30.19h-4.15v4.93h4.21c1.71,0,2.72-1,2.72-2.44s-1.09-2.49-2.78-2.49Z"/>
      <path class="cls-2" d="M108.51,31.08l-1.09.82c-.82-1.2-2.15-1.92-3.84-1.92-2.94,0-4.76,2.19-4.76,5.43s1.82,5.46,4.79,5.46c2.51,0,4.33-1.6,4.48-4.17h-4.03v-1.29h5.43c.03.23.06.51.06.82,0,3.19-2.18,5.96-5.91,5.96s-6.29-2.91-6.29-6.77,2.47-6.74,6.27-6.74c2.13,0,3.8.92,4.9,2.41h0Z"/>
      <path class="cls-2" d="M121.52,41.94l-1.59-3.92h-6.21l-1.59,3.92h-1.45l5.4-13.04h1.57l5.4,13.04h-1.54.01ZM116.88,30.29l-2.63,6.44h5.17s-2.55-6.44-2.55-6.44Z"/>
      <path class="cls-2" d="M130.48,41.94v-13.04h9.18v1.29h-7.79v4.19h6.62v1.28h-6.62v4.99h7.79v1.29s-9.18,0-9.18,0Z"/>
      <path class="cls-2" d="M142.63,41.94v-13.04h1.37v11.75h7.47v1.29h-8.84Z"/>
      <path class="cls-2" d="M158.91,41.94v-13.04h1.37v13.04h-1.37Z"/>
      <path class="cls-2" d="M172.71,41.94l-7.4-11.39v11.39h-1.31v-13.04h1.76l7.22,11.13v-11.13h1.34v13.04h-1.61Z"/>
      <path class="cls-2" d="M179.43,30.19v4.19h6.6v1.28h-6.6v6.29h-1.39v-13.04h9.17v1.29h-7.78Z"/>
      <path class="cls-2" d="M195.12,42.17c-3.8,0-6.27-2.9-6.27-6.75s2.47-6.75,6.27-6.75,6.27,2.88,6.27,6.75-2.47,6.75-6.27,6.75ZM195.12,29.97c-2.97,0-4.8,2.19-4.8,5.45s1.82,5.45,4.8,5.45,4.79-2.21,4.79-5.45-1.84-5.45-4.79-5.45Z"/>
      <path class="cls-2" d="M212.81,41.94l-2.96-5.52h-4.22v5.52h-1.37v-13.04h5.56c2.51,0,4.19,1.43,4.19,3.69,0,1.8-1.09,3.08-2.77,3.61l3.11,5.76h-1.57.01ZM209.79,30.19h-4.15v4.93h4.22c1.71,0,2.72-1,2.72-2.44s-1.09-2.49-2.78-2.49h-.01Z"/>
      <path class="cls-2" d="M228.97,41.94v-11.61l-4.64,11.61h-1.27l-4.67-11.65v11.65h-1.34v-13.04h2.13l4.53,11.33,4.54-11.33h2.05v13.04h-1.35.01Z"/>
      <path class="cls-2" d="M234.04,41.94v-13.04h9.18v1.29h-7.79v4.19h6.62v1.28h-6.62v4.99h7.79v1.29s-9.18,0-9.18,0Z"/>
    </g>
    <g class="cls-4">
      <path class="cls-2" d="M260.71,31.92c-.82-1.2-2.1-1.94-3.81-1.94-2.9,0-4.8,2.12-4.8,5.43s1.92,5.46,4.76,5.46c1.67,0,3.03-.75,3.86-1.96l1.14.84c-1.09,1.51-2.82,2.43-4.95,2.43-3.8,0-6.27-2.9-6.27-6.75s2.47-6.75,6.24-6.75c2.21,0,3.83.94,4.92,2.41l-1.07.84h-.01Z"/>
    </g>
    <g class="cls-4">
      <path class="cls-2" d="M269.74,42.17c-3.8,0-6.27-2.9-6.27-6.75s2.47-6.75,6.27-6.75,6.27,2.88,6.27,6.75-2.47,6.75-6.27,6.75ZM269.74,29.97c-2.97,0-4.8,2.19-4.8,5.45s1.82,5.45,4.8,5.45,4.79-2.21,4.79-5.45-1.84-5.45-4.79-5.45Z"/>
      <path class="cls-2" d="M290.81,41.94v-11.61l-4.64,11.61h-1.28l-4.67-11.65v11.65h-1.34v-13.04h2.13l4.53,11.33,4.54-11.33h2.06v13.04h-1.35.01Z"/>
      <path class="cls-2" d="M301.14,36.69h-3.89v5.25h-1.37v-13.04h5.27c2.94,0,4.48,1.57,4.48,3.89s-1.54,3.89-4.48,3.89ZM301.16,35.4c2.07,0,3.02-1.06,3.02-2.6s-.94-2.6-3.02-2.6h-3.92v5.21h3.92Z"/>
      <path class="cls-2" d="M308.12,41.94v-13.04h1.37v11.75h7.47v1.29h-8.84Z"/>
      <path class="cls-2" d="M319.1,41.94v-13.04h9.18v1.29h-7.79v4.19h6.62v1.28h-6.62v4.99h7.79v1.29s-9.18,0-9.18,0Z"/>
    </g>
    <g class="cls-4">
      <path class="cls-2" d="M335.81,30.19v11.75h-1.39v-11.75h-4.56v-1.29h10.54v1.29s-4.59,0-4.59,0Z"/>
    </g>
    <g class="cls-4">
      <path class="cls-2" d="M347.73,42.17c-3.8,0-6.27-2.9-6.27-6.75s2.47-6.75,6.27-6.75,6.27,2.88,6.27,6.75-2.47,6.75-6.27,6.75ZM347.73,29.97c-2.97,0-4.79,2.19-4.79,5.45s1.82,5.45,4.79,5.45,4.8-2.21,4.8-5.45-1.84-5.45-4.8-5.45Z"/>
    </g>
  </g>
  <rect class="cls-1" x=".48" y=".48" width="374" height="66"/>
</svg>