<?xml version="1.0" encoding="UTF-8"?>
<svg id="Layer_1" data-name="Layer 1" xmlns="http://www.w3.org/2000/svg" xmlns:xlink="http://www.w3.org/1999/xlink" version="1.1" viewBox="0 0 375.55 67.52">
  <defs>
    <style>
      .cls-1 {
        clip-path: url(#clippath);
      }

      .cls-2, .cls-3 {
        fill: none;
      }

      .cls-2, .cls-4 {
        stroke-width: 0px;
      }

      .cls-3 {
        stroke: #00adef;
      }

      .cls-4 {
        fill: #00adef;
      }
    </style>
    <clipPath id="clippath">
      <rect class="cls-2" x="-8.22" y=".56" width="392" height="81.71"/>
    </clipPath>
  </defs>
  <rect class="cls-2" x="99.29" y="-7.67" width="294" height="87.3"/>
  <g>
    <path class="cls-4" d="M81.95,41.16v-11.32h4.27c3.43,0,5.39,2.41,5.39,5.66s-1.96,5.66-5.39,5.66h-4.27ZM86.21,40.04c2.67,0,4.11-1.82,4.11-4.54s-1.44-4.54-4.11-4.54h-3.06v9.08h3.06Z"/>
    <path class="cls-4" d="M98.85,41.36c-3.3,0-5.44-2.52-5.44-5.86s2.14-5.86,5.44-5.86,5.44,2.5,5.44,5.86-2.14,5.86-5.44,5.86ZM98.85,30.77c-2.58,0-4.16,1.9-4.16,4.73s1.58,4.73,4.16,4.73,4.16-1.92,4.16-4.73-1.6-4.73-4.16-4.73Z"/>
    <path class="cls-4" d="M117.41,41.16h-1.39l-2.89-9.88-2.91,9.88h-1.43l-3.13-11.32h1.24l2.67,9.93,2.98-9.93h1.22l2.96,9.94,2.63-9.94h1.21l-3.16,11.32Z"/>
    <path class="cls-4" d="M130.24,41.16l-6.43-9.89v9.89h-1.14v-11.32h1.53l6.27,9.66v-9.66h1.16v11.32h-1.39Z"/>
    <path class="cls-4" d="M134.87,41.16v-11.32h1.19v10.2h6.48v1.12h-7.67Z"/>
    <path class="cls-4" d="M149.11,41.36c-3.3,0-5.44-2.52-5.44-5.86s2.14-5.86,5.44-5.86,5.44,2.5,5.44,5.86-2.14,5.86-5.44,5.86ZM149.11,30.77c-2.58,0-4.16,1.9-4.16,4.73s1.58,4.73,4.16,4.73,4.16-1.92,4.16-4.73-1.6-4.73-4.16-4.73Z"/>
    <path class="cls-4" d="M165.08,41.16l-1.38-3.4h-5.39l-1.38,3.4h-1.26l4.69-11.32h1.36l4.69,11.32h-1.34ZM161.05,31.04l-2.28,5.59h4.49l-2.21-5.59Z"/>
    <path class="cls-4" d="M168.27,41.16v-11.32h4.27c3.43,0,5.39,2.41,5.39,5.66s-1.96,5.66-5.39,5.66h-4.27ZM172.54,40.04c2.67,0,4.11-1.82,4.11-4.54s-1.44-4.54-4.11-4.54h-3.06v9.08h3.06Z"/>
    <path class="cls-4" d="M186.26,30.96v3.64h5.73v1.11h-5.73v5.46h-1.21v-11.32h7.96v1.12h-6.75Z"/>
    <path class="cls-4" d="M204.11,36.94c0,2.67-1.96,4.42-4.56,4.42s-4.52-1.75-4.52-4.42v-7.11h1.19v7.11c0,1.96,1.27,3.28,3.33,3.28s3.37-1.33,3.37-3.28v-7.11h1.19v7.11Z"/>
    <path class="cls-4" d="M207.2,41.16v-11.32h1.19v10.2h6.48v1.12h-7.67Z"/>
    <path class="cls-4" d="M216.74,41.16v-11.32h1.19v10.2h6.48v1.12h-7.67Z"/>
    <path class="cls-4" d="M238.28,41.16l-2.57-4.79h-3.65v4.79h-1.19v-11.32h4.83c2.18,0,3.64,1.24,3.64,3.2,0,1.56-.95,2.67-2.4,3.13l2.7,5h-1.36ZM235.66,30.96h-3.6v4.28h3.65c1.48,0,2.36-.87,2.36-2.12s-.95-2.16-2.41-2.16Z"/>
    <path class="cls-4" d="M241.97,41.16v-11.32h7.97v1.12h-6.77v3.64h5.75v1.11h-5.75v4.33h6.77v1.12h-7.97Z"/>
    <path class="cls-4" d="M257.08,36.6h-3.38v4.56h-1.19v-11.32h4.57c2.55,0,3.89,1.36,3.89,3.38s-1.34,3.38-3.89,3.38ZM257.1,35.48c1.8,0,2.62-.92,2.62-2.26s-.82-2.26-2.62-2.26h-3.4v4.52h3.4Z"/>
    <path class="cls-4" d="M267.84,41.36c-3.3,0-5.44-2.52-5.44-5.86s2.14-5.86,5.44-5.86,5.44,2.5,5.44,5.86-2.14,5.86-5.44,5.86ZM267.84,30.77c-2.58,0-4.16,1.9-4.16,4.73s1.58,4.73,4.16,4.73,4.17-1.92,4.17-4.73-1.6-4.73-4.17-4.73Z"/>
    <path class="cls-4" d="M283.19,41.16l-2.57-4.79h-3.65v4.79h-1.19v-11.32h4.83c2.18,0,3.64,1.24,3.64,3.2,0,1.56-.95,2.67-2.4,3.13l2.7,5h-1.36ZM280.57,30.96h-3.6v4.28h3.65c1.48,0,2.36-.87,2.36-2.12s-.95-2.16-2.41-2.16Z"/>
    <path class="cls-4" d="M290.84,30.96v10.2h-1.21v-10.2h-3.96v-1.12h9.15v1.12h-3.98Z"/>
  </g>
  <g class="cls-1">
    <rect class="cls-3" x="1.28" y="1.06" width="373" height="65" rx="30" ry="30"/>
  </g>
</svg>