<?xml version="1.0" encoding="UTF-8"?>
<svg id="Layer_1" data-name="Layer 1" xmlns="http://www.w3.org/2000/svg" version="1.1" viewBox="0 0 377.1 69">
  <defs>
    <style>
      .cls-1, .cls-2 {
        fill: none;
      }

      .cls-1, .cls-3 {
        stroke-width: 0px;
      }

      .cls-2 {
        stroke: #00adef;
      }

      .cls-3 {
        fill: #00adef;
      }
    </style>
  </defs>
  <rect class="cls-1" x="1.6" y="2.4" width="374" height="66"/>
  <rect class="cls-2" x="2.1" y="2.9" width="373" height="65" rx="30" ry="30"/>
  <g>
    <path class="cls-3" d="M107.8,43v-11.3h4.3c3.4,0,5.4,2.4,5.4,5.7s-2,5.7-5.4,5.7h-4.3ZM112.1,41.9c2.7,0,4.1-1.8,4.1-4.5s-1.4-4.5-4.1-4.5h-3.1v9.1h3.1Z"/>
    <path class="cls-3" d="M124.7,43.2c-3.3,0-5.4-2.5-5.4-5.9s2.1-5.9,5.4-5.9,5.4,2.5,5.4,5.9-2.1,5.9-5.4,5.9ZM124.7,32.6c-2.6,0-4.2,1.9-4.2,4.7s1.6,4.7,4.2,4.7,4.2-1.9,4.2-4.7-1.6-4.7-4.2-4.7Z"/>
    <path class="cls-3" d="M143.3,43h-1.4l-2.9-9.9-2.9,9.9h-1.4l-3.1-11.3h1.2l2.7,9.9,3-9.9h1.2l3,9.9,2.6-9.9h1.2l-3.2,11.3h0Z"/>
    <path class="cls-3" d="M156.1,43l-6.4-9.9v9.9h-1.1v-11.3h1.5l6.3,9.7v-9.7h1.2v11.3h-1.4Z"/>
    <path class="cls-3" d="M160.7,43v-11.3h1.2v10.2h6.5v1.1h-7.7Z"/>
    <path class="cls-3" d="M175,43.2c-3.3,0-5.4-2.5-5.4-5.9s2.1-5.9,5.4-5.9,5.4,2.5,5.4,5.9-2.1,5.9-5.4,5.9ZM175,32.6c-2.6,0-4.2,1.9-4.2,4.7s1.6,4.7,4.2,4.7,4.2-1.9,4.2-4.7-1.6-4.7-4.2-4.7Z"/>
    <path class="cls-3" d="M190.9,43l-1.4-3.4h-5.4l-1.4,3.4h-1.3l4.7-11.3h1.4l4.7,11.3h-1.3,0ZM186.9,32.9l-2.3,5.6h4.5l-2.2-5.6Z"/>
    <path class="cls-3" d="M194.1,43v-11.3h4.3c3.4,0,5.4,2.4,5.4,5.7s-2,5.7-5.4,5.7h-4.3ZM198.4,41.9c2.7,0,4.1-1.8,4.1-4.5s-1.4-4.5-4.1-4.5h-3.1v9.1h3.1Z"/>
    <path class="cls-3" d="M210.9,43v-11.3h1.2v10.2h6.5v1.1h-7.7Z"/>
    <path class="cls-3" d="M220.4,43v-11.3h8v1.1h-6.8v3.6h5.8v1.1h-5.8v4.3h6.8v1.1h-8Z"/>
    <path class="cls-3" d="M234.9,32.8v10.2h-1.2v-10.2h-4v-1.1h9.1v1.1h-4,0Z"/>
    <path class="cls-3" d="M244.9,32.8v10.2h-1.2v-10.2h-4v-1.1h9.1v1.1h-4,0Z"/>
    <path class="cls-3" d="M250.9,43v-11.3h8v1.1h-6.8v3.6h5.7v1.1h-5.8v4.3h6.8v1.1h-8,0Z"/>
    <path class="cls-3" d="M268.9,43l-2.6-4.8h-3.6v4.8h-1.2v-11.3h4.8c2.2,0,3.6,1.2,3.6,3.2s-1,2.7-2.4,3.1l2.7,5h-1.4ZM266.2,32.8h-3.6v4.3h3.6c1.5,0,2.4-.9,2.4-2.1s-1-2.2-2.4-2.2h0Z"/>
  </g>
</svg>