<?xml version="1.0" encoding="UTF-8"?>
<svg id="Layer_1" data-name="Layer 1" xmlns="http://www.w3.org/2000/svg" version="1.1" viewBox="0 0 375.55 67.52">
  <defs>
    <style>
      .cls-1 {
        fill: none;
      }

      .cls-1, .cls-2 {
        stroke-width: 0px;
      }

      .cls-3 {
        fill: #fff;
        stroke: #00adef;
      }

      .cls-2 {
        fill: #00adef;
      }
    </style>
  </defs>
  <rect class="cls-3" x="1" y="1.5" width="373" height="65" rx="30" ry="30"/>
  <g>
    <path class="cls-2" d="M140.11,41.6v-11.32h4.27c3.43,0,5.39,2.41,5.39,5.66s-1.96,5.66-5.39,5.66h-4.27ZM144.38,40.48c2.67,0,4.11-1.82,4.11-4.54s-1.44-4.54-4.11-4.54h-3.06v9.08h3.06Z"/>
    <path class="cls-2" d="M157.01,41.8c-3.3,0-5.44-2.52-5.44-5.86s2.14-5.86,5.44-5.86,5.44,2.5,5.44,5.86-2.14,5.86-5.44,5.86ZM157.01,31.21c-2.58,0-4.16,1.9-4.16,4.73s1.58,4.73,4.16,4.73,4.16-1.92,4.16-4.73-1.6-4.73-4.16-4.73Z"/>
    <path class="cls-2" d="M175.57,41.6h-1.39l-2.89-9.88-2.91,9.88h-1.43l-3.13-11.32h1.24l2.67,9.93,2.98-9.93h1.22l2.96,9.94,2.63-9.94h1.21l-3.16,11.32Z"/>
    <path class="cls-2" d="M188.41,41.6l-6.43-9.89v9.89h-1.14v-11.32h1.53l6.27,9.66v-9.66h1.16v11.32h-1.39Z"/>
    <path class="cls-2" d="M193.03,41.6v-11.32h1.19v10.2h6.48v1.12h-7.67Z"/>
    <path class="cls-2" d="M206.92,41.8c-3.3,0-5.44-2.52-5.44-5.86s2.14-5.86,5.44-5.86,5.44,2.5,5.44,5.86-2.14,5.86-5.44,5.86ZM206.92,31.21c-2.58,0-4.16,1.9-4.16,4.73s1.58,4.73,4.16,4.73,4.16-1.92,4.16-4.73-1.6-4.73-4.16-4.73Z"/>
    <path class="cls-2" d="M222.77,41.6l-1.38-3.4h-5.39l-1.38,3.4h-1.26l4.69-11.32h1.36l4.69,11.32h-1.34ZM218.74,31.49l-2.28,5.59h4.49l-2.21-5.59Z"/>
    <path class="cls-2" d="M225.96,41.6v-11.32h4.27c3.43,0,5.39,2.41,5.39,5.66s-1.96,5.66-5.39,5.66h-4.27ZM230.23,40.48c2.67,0,4.11-1.82,4.11-4.54s-1.44-4.54-4.11-4.54h-3.06v9.08h3.06Z"/>
  </g>
  <rect class="cls-1" x=".5" y="1" width="374" height="66"/>
</svg>