<?xml version="1.0" encoding="UTF-8"?>
<svg xmlns="http://www.w3.org/2000/svg" version="1.1" viewBox="0 0 375.56 67.04">
  <defs>
    <style>
      .cls-1 {
        fill: none;
      }

      .cls-1, .cls-2 {
        stroke-width: 0px;
      }

      .cls-3 {
        fill: #172b54;
        stroke: #fff;
      }

      .cls-2 {
        fill: #fff;
      }
    </style>
  </defs>
  <g id="Layer_1" data-name="Layer 1">
    <path class="cls-3" d="M30.98,6h313c16.57,0,30,11.36,30,25.37v4.23c0,14.01-13.43,25.37-30,25.37H30.98c-16.57-.01-30-11.37-30-25.38v-4.23C.98,17.36,14.41,6,30.98,6Z"/>
    <rect class="cls-1" x=".48" y=".48" width="374" height="66"/>
  </g>
  <g id="Layer_2" data-name="Layer 2">
    <g>
      <path class="cls-2" d="M52,41.26v-14.52h5.48c4.4,0,6.91,3.09,6.91,7.26s-2.51,7.26-6.91,7.26h-5.48ZM57.46,39.82c3.42,0,5.27-2.33,5.27-5.82s-1.85-5.82-5.27-5.82h-3.92v11.64h3.92Z"/>
      <path class="cls-2" d="M73.67,41.52c-4.23,0-6.98-3.23-6.98-7.52s2.74-7.52,6.98-7.52,6.98,3.21,6.98,7.52-2.74,7.52-6.98,7.52ZM73.67,27.93c-3.31,0-5.34,2.44-5.34,6.07s2.03,6.07,5.34,6.07,5.34-2.46,5.34-6.07-2.05-6.07-5.34-6.07Z"/>
      <path class="cls-2" d="M97.48,41.26h-1.78l-3.71-12.67-3.73,12.67h-1.83l-4.01-14.52h1.59l3.42,12.73,3.82-12.73h1.56l3.8,12.75,3.37-12.75h1.55s-4.05,14.52-4.05,14.52Z"/>
      <path class="cls-2" d="M113.93,41.26l-8.25-12.68v12.68h-1.46v-14.52h1.96l8.04,12.39v-12.39h1.49v14.52h-1.78Z"/>
      <path class="cls-2" d="M119.87,41.26v-14.52h1.53v13.08h8.31v1.44h-9.84Z"/>
      <path class="cls-2" d="M138.13,41.52c-4.23,0-6.98-3.23-6.98-7.52s2.74-7.52,6.98-7.52,6.98,3.21,6.98,7.52-2.74,7.52-6.98,7.52ZM138.13,27.93c-3.31,0-5.34,2.44-5.34,6.07s2.03,6.07,5.34,6.07,5.34-2.46,5.34-6.07-2.05-6.07-5.34-6.07Z"/>
      <path class="cls-2" d="M158.61,41.26l-1.77-4.36h-6.91l-1.77,4.36h-1.62l6.01-14.52h1.74l6.01,14.52h-1.72.01ZM153.44,28.28l-2.92,7.17h5.76l-2.83-7.17Z"/>
      <path class="cls-2" d="M162.7,41.26v-14.52h5.48c4.4,0,6.91,3.09,6.91,7.26s-2.51,7.26-6.91,7.26h-5.48ZM168.18,39.82c3.42,0,5.27-2.33,5.27-5.82s-1.85-5.82-5.27-5.82h-3.92v11.64h3.92Z"/>
      <path class="cls-2" d="M185.77,28.18v4.67h7.35v1.42h-7.35v7h-1.55v-14.52h10.21v1.44h-8.66Z"/>
      <path class="cls-2" d="M208.67,35.85c0,3.42-2.51,5.67-5.85,5.67s-5.8-2.24-5.8-5.67v-9.12h1.53v9.12c0,2.51,1.63,4.21,4.27,4.21s4.32-1.71,4.32-4.21v-9.12h1.53s0,9.12,0,9.12Z"/>
      <path class="cls-2" d="M212.63,41.26v-14.52h1.53v13.08h8.31v1.44h-9.84Z"/>
      <path class="cls-2" d="M224.86,41.26v-14.52h1.53v13.08h8.31v1.44h-9.84Z"/>
      <path class="cls-2" d="M252.49,41.26l-3.3-6.14h-4.68v6.14h-1.53v-14.52h6.19c2.8,0,4.67,1.59,4.67,4.1,0,2-1.22,3.42-3.08,4.01l3.46,6.41h-1.74ZM249.13,28.18h-4.62v5.49h4.68c1.9,0,3.03-1.12,3.03-2.72s-1.22-2.77-3.09-2.77h0Z"/>
      <path class="cls-2" d="M257.22,41.26v-14.52h10.22v1.44h-8.68v4.67h7.37v1.42h-7.37v5.55h8.68v1.44h-10.22Z"/>
      <path class="cls-2" d="M276.6,35.41h-4.33v5.85h-1.53v-14.52h5.86c3.27,0,4.99,1.74,4.99,4.33s-1.72,4.33-4.99,4.33ZM276.63,33.97c2.31,0,3.36-1.18,3.36-2.9s-1.05-2.9-3.36-2.9h-4.36v5.8h4.36Z"/>
      <path class="cls-2" d="M290.4,41.52c-4.23,0-6.98-3.23-6.98-7.52s2.74-7.52,6.98-7.52,6.98,3.21,6.98,7.52-2.74,7.52-6.98,7.52ZM290.4,27.93c-3.31,0-5.34,2.44-5.34,6.07s2.03,6.07,5.34,6.07,5.35-2.46,5.35-6.07-2.05-6.07-5.35-6.07Z"/>
      <path class="cls-2" d="M310.08,41.26l-3.3-6.14h-4.68v6.14h-1.53v-14.52h6.19c2.8,0,4.67,1.59,4.67,4.1,0,2-1.22,3.42-3.08,4.01l3.46,6.41h-1.74ZM306.72,28.18h-4.62v5.49h4.68c1.9,0,3.03-1.12,3.03-2.72s-1.22-2.77-3.09-2.77h0Z"/>
      <path class="cls-2" d="M319.9,28.18v13.08h-1.55v-13.08h-5.08v-1.44h11.73v1.44h-5.1Z"/>
    </g>
  </g>
</svg>