<?xml version="1.0" encoding="UTF-8"?>
<svg id="Layer_1" data-name="Layer 1" xmlns="http://www.w3.org/2000/svg" xmlns:xlink="http://www.w3.org/1999/xlink" version="1.1" viewBox="0 0 1920 450">
  <defs>
    <style>
      .cls-1 {
        clip-path: url(#clippath);
      }

      .cls-2 {
        fill: none;
      }

      .cls-2, .cls-3, .cls-4 {
        stroke-width: 0px;
      }

      .cls-3 {
        fill: #0081c9;
      }

      .cls-4 {
        fill: #fff;
      }
    </style>
    <clipPath id="clippath">
      <rect class="cls-2" x="2.56" y="1.97" width="1915.44" height="446.17"/>
    </clipPath>
  </defs>
  <g class="cls-1">
    <path class="cls-4" d="M917.74,322.82l56.42-209.63h-60.48c-9.47.23-17.52,6.04-21.01,14.21l-56.45,209.5h63.13c8.3-1.18,15.19-6.61,18.39-14.08"/>
    <path class="cls-4" d="M1829.66,113.2h-60.88c-9.78.23-20.81,6.27-28.13,14.71l-165.34,208.99h77.42l29.79-37.68h153.36l14.86,37.68h67.26l-88.34-223.71ZM1725.79,244.57l59.03-74.63,29.48,74.63h-88.51Z"/>
    <path class="cls-4" d="M1235,336.94c10.42-.17,19.24-7.14,22.12-16.67l55.73-207.06h-77.68l-39.47,146.56-106.53-146.56h-.12l.04-.13h-60.11v.08c-10.24.21-18.89,6.87-21.97,16.07l-55.89,207.69h77.71l39.3-146.11,106.2,146.15h60.67v-.02Z"/>
    <path class="cls-4" d="M1601.88,113.2h-200.59v.04c-42.72.85-81,31.48-86,69.23-4.98,37.97,25.7,70.99,68.65,71.45h.42c.16,0,.29.01.43.01.11,0,.19-.01.29-.01h17.11c.12,0,.27.01.41.01,0,0,.17-.01.29-.01h97.28v.04c.14,0,.25-.03.39-.04h1.41c9.45.35,16.09,5.23,14.94,13.73-1.15,8.82-10.2,15.98-20.21,15.98-.27,0-.56-.08-.85-.08l-.02.08h-183.64c-10.52.16-19.39,7.2-22.17,16.85-3.33,11.99-6.74,24.43-10.07,36.43h229.07v-.1c41.85-1.79,78.98-32.06,83.88-69.16,5.05-38.21-26.05-71.47-69.46-71.47h-.21l-16.83.02c-.27,0-.54-.02-.81-.02,0,0-.17,0-.23.02h-97.31v-.02c-.15,0-.27,0-.37.02h-1.44c-9.44-.33-16.08-5.24-14.98-13.73,1.21-8.83,10.22-15.97,20.25-15.97.31,0,.56.05.87.06v-.06h180.06c10.53-.16,19.38-7.22,22.2-16.83,3.33-12.02,6.72-24.45,10.05-36.47h-22.8Z"/>
    <path class="cls-4" d="M615.46,320.88l16.5-61.13h153.8c10.49-.18,19.25-7.11,22.12-16.65,3.33-12.05,6.72-24.57,10.09-36.61h-171.67l10.75-39.99h180.31c10.22-.27,18.78-7.01,21.8-16.29,3.35-12.21,6.83-24.78,10.18-37.02h-258.16c-10.41.27-19.14,7.22-21.97,16.69l-55.77,207.03h60.38c10.14-.28,18.62-6.92,21.64-16.03"/>
    <path class="cls-3" d="M427.06,124.81s-1-1.33-2.11-.62c-1.08.74-.12,2.21-.12,2.21,24.26,58.46,21.16,127.18-13.38,185.84-39.61,67.23-111.22,104.31-184.43,103.41v32.49c77.09.09,152.06-39.19,193.72-109.96,39.98-67.78,39.61-147.99,6.32-213.37"/>
    <path class="cls-3" d="M386.51,147.81s-.58-.48-1.33,0c-.74.46-.23,1.18-.23,1.18,16.32,44.41,12.72,95.46-13.15,139.35-31.08,52.78-87.31,81.76-144.77,80.93v32.52c61.02.07,120.38-31.08,153.43-87.07,31.17-53.02,31.38-115.48,6.06-166.91"/>
    <path class="cls-3" d="M347.23,170.08s-.23-.64-1.12-.25c-.9.33-.44,1.08-.44,1.08,8.91,30.52,5.26,64.75-12.14,94.32-22.85,38.72-64.27,59.98-106.49,59.19v32.48c45.48.08,89.83-23.06,114.46-64.91,22.78-38.62,23.43-84.08,5.75-121.91"/>
    <path class="cls-3" d="M227.65,93.32c-45.05-.21-84.89,22.03-108.98,56.16,0,0-.4.56.37,1.14.79.58,1.16-.19,1.16-.19,22.08-22.95,53.7-37,88.14-36.84,45.73.25,85.38,25.8,105.67,63.29l28.34-16.3c-22.57-39.96-65.44-67.01-114.71-67.26"/>
    <path class="cls-3" d="M227.87,48.4c-61.72-.25-116.23,30.96-148.24,78.5,0,0-.11.7.68,1.12.77.37,1.16-.35,1.16-.35,30.38-36.35,76.63-58.87,127.83-58.62,62.03.31,115.9,34.75,143.73,85.39l28.36-16.3c-30.32-53.28-87.61-89.42-153.53-89.76"/>
    <path class="cls-3" d="M228.12,1.97c-79.08-.39-148.66,40.11-188.84,101.54,0,0-.64,1.53.54,2.11,1.14.62,1.94-.94,1.94-.94C80.48,54.43,141.8,22.63,210.25,22.98c78.91.4,147.47,44.04,183.22,108.26l28.3-16.25C383.42,47.85,311.22,2.34,228.12,1.97"/>
    <path class="cls-3" d="M112.24,159.55c-22.89,39.51-24.66,89.65,0,131.89,22.55,38.78,62.01,61.72,103.8,65.07,0,0,.64.13.85-.87.06-.93-.81-.89-.81-.89-31.11-7.3-59.24-27.38-76.49-57.02-22.8-39.1-20.79-85.64,1.04-121.89l-28.4-16.3Z"/>
    <path class="cls-3" d="M73.18,313.93c30.94,53.14,85.54,84.1,142.97,87.54,0,0,.74-.25.64-1.11,0-.89-.88-.83-.88-.83-46.91-7.69-89.82-36.03-115.47-80.11-31.03-53.15-28.46-116.53,1.14-165.98l-28.36-16.28c-30.71,52.93-33.01,120.22-.04,176.77"/>
    <path class="cls-3" d="M32.71,337.29c39.65,67.93,109.98,107.23,183.57,110.62,0,0,1.62-.23,1.56-1.51-.07-1.31-1.82-1.21-1.82-1.21-63.14-7.8-121.72-44.36-156.04-103.21-39.49-67.85-36.37-148.58,1.16-211.73l-28.32-16.27c-38.86,66.81-41.8,151.8-.12,223.31"/>
  </g>
</svg>