<?xml version="1.0" encoding="UTF-8"?>
<svg id="Layer_1" data-name="Layer 1" xmlns="http://www.w3.org/2000/svg" xmlns:xlink="http://www.w3.org/1999/xlink" version="1.1" viewBox="0 0 114 15">
  <defs>
    <style>
      .cls-1 {
        clip-path: url(#clippath);
      }

      .cls-2 {
        fill: none;
      }

      .cls-2, .cls-3 {
        stroke-width: 0px;
      }

      .cls-4 {
        isolation: isolate;
      }

      .cls-3 {
        fill: #00adef;
      }
    </style>
    <clipPath id="clippath">
      <rect class="cls-2" x="-.72" y=".59" width="113.85" height="14.56"/>
    </clipPath>
  </defs>
  <g class="cls-1">
    <g>
      <g class="cls-4">
        <path class="cls-3" d="M.58,14.99V3h2.86v9.43h6.07v2.56H.58Z"/>
        <path class="cls-3" d="M11.03,14.99V3h9.33v2.57h-6.46v2.04h5.47v2.29h-5.47v2.54h6.46v2.56h-9.33Z"/>
        <path class="cls-3" d="M22.45,14.99V3h9.33v2.57h-6.46v2.04h5.47v2.29h-5.47v2.54h6.46v2.56h-9.33Z"/>
        <path class="cls-3" d="M41.13,14.99l-2.16-4.16h-2.23v4.16h-2.88V3h5.64c2.97,0,4.5,1.58,4.5,3.82,0,1.78-1.12,2.94-2.23,3.46l2.58,4.72h-3.21ZM39.44,5.57h-2.7v2.97h2.7c.94,0,1.64-.56,1.64-1.49s-.72-1.48-1.64-1.48Z"/>
        <path class="cls-3" d="M61.83,14.99V6.02l-2.92,8.97h-2.3l-2.88-8.89v8.89h-2.79V3h4.14l2.74,8.41,2.72-8.41h4.11v11.99h-2.81Z"/>
        <path class="cls-3" d="M75.06,14.99l-.83-2.56h-4.32l-.83,2.56h-3.13l4.45-11.99h3.44l4.43,11.99h-3.21ZM72.07,5.39l-1.51,4.74h3.01l-1.5-4.74ZM70.92,1.94c.52-.68,1.19-1.67,1.51-2.45l2.23.38c-.43,1.03-1.73,2.09-2.72,2.59l-1.03-.52Z"/>
        <path class="cls-3" d="M88.96,5.21l-2.14,1.33c-.72-1.01-1.85-1.44-2.99-1.44-1.01,0-1.73.36-1.73,1.13,0,.88,1.15,1.06,2.45,1.3,2.52.45,4.65,1.21,4.65,3.69,0,2.27-1.82,3.98-5.04,3.98-2.61,0-4.61-1.12-5.56-3.01l2.25-1.19c.79,1.35,2.09,1.85,3.44,1.85,1.26,0,2.09-.47,2.09-1.24,0-1.01-1.17-1.19-2.61-1.44-2.45-.43-4.52-1.21-4.52-3.73,0-2.29,1.87-3.67,4.65-3.67,1.91,0,3.87.65,5.08,2.43Z"/>
      </g>
      <path class="cls-3" d="M104.94,14.21l3.28-3.28.04-.05c.33-.44,2.05-2.29,2.05-2.29h-16.84v-1.41h17.03s-2.01-1.99-2.41-2.38l-3.24-3.24.97-.97,7.3,7.3-7.25,7.26-.93-.93h0Z"/>
    </g>
  </g>
</svg>