<?xml version="1.0" encoding="UTF-8"?>
<svg id="Layer_1" data-name="Layer 1" xmlns="http://www.w3.org/2000/svg" xmlns:xlink="http://www.w3.org/1999/xlink" version="1.1" viewBox="0 0 949.41 226.63">
  <defs>
    <style>
      .cls-1 {
        clip-path: url(#clippath);
      }

      .cls-2 {
        fill: none;
      }

      .cls-2, .cls-3, .cls-4 {
        stroke-width: 0px;
      }

      .cls-3 {
        fill: #0081c9;
      }

      .cls-4 {
        fill: #002855;
      }
    </style>
    <clipPath id="clippath">
      <rect class="cls-2" x="2.82" y="3.34" width="944.73" height="220.06"/>
    </clipPath>
  </defs>
  <g class="cls-1">
    <path class="cls-4" d="M454.21,161.6l27.83-103.39h-29.83c-4.67.11-8.64,2.98-10.37,7.01l-27.84,103.33h31.14c4.1-.58,7.49-3.26,9.07-6.95"/>
    <path class="cls-4" d="M903.98,58.21h-30.03c-4.82.11-10.26,3.09-13.87,7.26l-81.55,103.08h38.19l14.69-18.58h75.64l7.33,18.58h33.18l-43.57-110.34ZM852.75,123l29.11-36.81,14.54,36.81h-43.65Z"/>
    <path class="cls-4" d="M610.69,168.56c5.14-.08,9.49-3.52,10.91-8.22l27.49-102.13h-38.32l-19.47,72.29-52.54-72.29h-.06l.02-.06h-29.65v.04c-5.05.1-9.32,3.39-10.83,7.92l-27.57,102.44h38.33l19.38-72.06,52.38,72.08h29.92Z"/>
    <path class="cls-4" d="M791.64,58.21h-98.94v.02c-21.07.42-39.95,15.53-42.41,34.14-2.46,18.73,12.67,35.01,33.86,35.24h.2c.08,0,.15,0,.21,0,.05,0,.09,0,.14,0h8.44c.06,0,.13,0,.2,0,0,0,.08,0,.15,0h47.97v.02c.07,0,.12-.01.2-.02h.69c4.66.17,7.94,2.59,7.37,6.77-.56,4.35-5.03,7.88-9.97,7.88-.13,0-.27-.04-.42-.04v.04h-90.59c-5.19.08-9.57,3.55-10.94,8.31-1.64,5.91-3.32,12.05-4.96,17.97h112.99v-.05c20.64-.88,38.96-15.81,41.37-34.11,2.49-18.84-12.85-35.25-34.26-35.25h-8.4c-.13,0-.27,0-.4,0,0,0-.08,0-.11,0h-48c-.07,0-.13,0-.19,0h-.71c-4.66-.16-7.93-2.59-7.39-6.77.6-4.35,5.04-7.87,9.99-7.87.15,0,.28.02.43.03v-.03h88.81c5.19-.08,9.55-3.56,10.95-8.3,1.65-5.93,3.32-12.06,4.96-17.99h-11.25Z"/>
    <path class="cls-4" d="M305.12,160.64l8.14-30.15h75.86c5.17-.09,9.49-3.51,10.91-8.21,1.64-5.95,3.32-12.12,4.98-18.06h-84.67l5.3-19.72h88.93c5.04-.13,9.27-3.46,10.75-8.03,1.65-6.02,3.36-12.22,5.02-18.25h-127.33c-5.13.13-9.44,3.56-10.84,8.23l-27.5,102.11h29.78c5-.13,9.18-3.41,10.67-7.9"/>
    <path class="cls-3" d="M212.2,63.93s-.49-.66-1.04-.31c-.53.37-.06,1.09-.06,1.09,11.97,28.84,10.44,62.73-6.6,91.66-19.54,33.16-54.85,51.45-90.96,51v16.03c38.02.04,74.99-19.33,95.54-54.23,19.72-33.43,19.54-72.99,3.12-105.24"/>
    <path class="cls-3" d="M192.2,75.28s-.29-.24-.66,0c-.37.23-.11.58-.11.58,8.04,21.9,6.27,47.08-6.48,68.73-15.33,26.04-43.06,40.33-71.4,39.92v16.04c30.1.03,59.38-15.33,75.67-42.95,15.37-26.15,15.48-56.95,2.99-82.32"/>
    <path class="cls-3" d="M172.82,86.26s-.11-.32-.55-.12c-.44.16-.22.53-.22.53,4.39,15.05,2.6,31.94-5.99,46.52-11.27,19.1-31.7,29.59-52.52,29.2v16.02c22.43.04,44.3-11.37,56.45-32.02,11.23-19.05,11.55-41.47,2.83-60.13"/>
    <path class="cls-3" d="M113.84,48.4c-22.22-.1-41.87,10.87-53.75,27.7,0,0-.2.27.18.56.39.28.57-.09.57-.09,10.89-11.32,26.48-18.25,43.47-18.18,22.56.12,42.12,12.73,52.12,31.22l13.98-8.04c-11.14-19.71-32.27-33.05-56.58-33.18"/>
    <path class="cls-3" d="M113.95,26.25c-30.44-.12-57.33,15.27-73.12,38.72,0,0-.05.35.34.55.38.19.57-.17.57-.17,14.98-17.93,37.8-29.03,63.05-28.91,30.59.15,57.16,17.14,70.89,42.12l13.98-8.04c-14.95-26.28-43.21-44.11-75.72-44.27"/>
    <path class="cls-3" d="M114.08,3.35c-39.01-.19-73.32,19.78-93.14,50.08,0,0-.32.76.27,1.04.57.31.96-.46.96-.46C41.26,29.22,71.5,13.54,105.26,13.71c38.92.2,72.74,21.72,90.36,53.39l13.96-8.01C190.67,25.97,155.06,3.53,114.08,3.35"/>
    <path class="cls-3" d="M56.92,81.07c-11.29,19.49-12.16,44.22,0,65.05,11.12,19.13,30.58,30.44,51.2,32.1,0,0,.32.06.42-.43.03-.46-.4-.44-.4-.44-15.34-3.6-29.22-13.5-37.73-28.12-11.25-19.28-10.25-42.24.51-60.12l-14.01-8.04Z"/>
    <path class="cls-3" d="M37.66,157.21c15.26,26.21,42.19,41.48,70.51,43.17,0,0,.37-.12.32-.55,0-.44-.43-.41-.43-.41-23.14-3.8-44.3-17.77-56.95-39.51-15.3-26.22-14.04-57.48.56-81.87l-13.98-8.02c-15.15,26.11-16.29,59.29-.02,87.18"/>
    <path class="cls-3" d="M17.69,168.73c19.56,33.5,54.25,52.89,90.54,54.57,0,0,.8-.12.77-.75-.03-.64-.89-.59-.89-.59-31.14-3.85-60.03-21.88-76.97-50.91-19.48-33.47-17.94-73.28.57-104.43l-13.97-8.03c-19.17,32.95-20.62,74.87-.06,110.14"/>
  </g>
</svg>