<?xml version="1.0" encoding="UTF-8"?>
<svg id="Layer_1" data-name="Layer 1" xmlns="http://www.w3.org/2000/svg" version="1.1" viewBox="0 0 130.64 15.48">
  <defs>
    <style>
      .cls-1 {
        fill: none;
      }

      .cls-1, .cls-2 {
        stroke-width: 0px;
      }

      .cls-3 {
        isolation: isolate;
      }

      .cls-2 {
        fill: #00adef;
      }
    </style>
  </defs>
  <g class="cls-3">
    <g class="cls-3">
      <path class="cls-2" d="M8.61,14.52l-2.16-4.16h-2.23v4.16H1.34V2.53h5.64c2.97,0,4.5,1.58,4.5,3.82,0,1.78-1.12,2.94-2.23,3.46l2.57,4.72h-3.21ZM6.92,5.1h-2.7v2.97h2.7c.94,0,1.64-.56,1.64-1.49s-.72-1.48-1.64-1.48Z"/>
      <path class="cls-2" d="M13.56,14.52V2.53h9.33v2.57h-6.46v2.04h5.47v2.29h-5.47v2.54h6.46v2.56h-9.33Z"/>
      <path class="cls-2" d="M32.8,14.52l-.83-2.56h-4.32l-.83,2.56h-3.13l4.45-11.99h3.44l4.43,11.99h-3.2ZM29.81,4.92l-1.51,4.73h3.01l-1.49-4.73Z"/>
      <path class="cls-2" d="M37.32,14.52V2.53h4.97c4,0,6.16,2.59,6.16,6s-2.16,6-6.16,6h-4.97ZM42.29,11.96c2.09,0,3.19-1.33,3.19-3.44s-1.1-3.42-3.19-3.42h-2.09v6.86h2.09Z"/>
      <path class="cls-2" d="M66.12,14.52V5.55l-2.92,8.97h-2.3l-2.88-8.89v8.89h-2.79V2.53h4.14l2.74,8.41,2.72-8.41h4.11v11.99h-2.81Z"/>
      <path class="cls-2" d="M76.96,14.74c-3.83,0-6.12-2.74-6.12-6.21s2.29-6.21,6.12-6.21,6.16,2.75,6.16,6.21-2.32,6.21-6.16,6.21ZM76.96,4.94c-2.05,0-3.15,1.6-3.15,3.58s1.1,3.58,3.15,3.58,3.17-1.58,3.17-3.58-1.12-3.58-3.17-3.58Z"/>
      <path class="cls-2" d="M92.27,14.52l-2.16-4.16h-2.23v4.16h-2.88V2.53h5.64c2.97,0,4.5,1.58,4.5,3.82,0,1.78-1.12,2.94-2.23,3.46l2.57,4.72h-3.2ZM90.58,5.1h-2.7v2.97h2.7c.94,0,1.64-.56,1.64-1.49s-.72-1.48-1.64-1.48Z"/>
      <path class="cls-2" d="M97.22,14.52V2.53h9.33v2.57h-6.46v2.04h5.47v2.29h-5.47v2.54h6.46v2.56h-9.33Z"/>
    </g>
  </g>
  <path class="cls-2" d="M122.7,13.75l3.28-3.28.04-.05c.33-.44,2.05-2.29,2.05-2.29h-16.84v-1.41h17.03s-2.01-1.99-2.41-2.38l-3.24-3.24.97-.97,7.3,7.3-7.25,7.26-.93-.93h0Z"/>
  <rect class="cls-1" x=".04" y=".12" width="107.43" height="15.54"/>
</svg>