<?xml version="1.0" encoding="UTF-8"?>
<svg id="Layer_1" data-name="Layer 1" xmlns="http://www.w3.org/2000/svg" xmlns:xlink="http://www.w3.org/1999/xlink" version="1.1" viewBox="0 0 377.41 70.74">
  <defs>
    <style>
      .cls-1 {
        clip-path: url(#clippath);
      }

      .cls-2, .cls-3 {
        fill: none;
      }

      .cls-2, .cls-4 {
        stroke-width: 0px;
      }

      .cls-3 {
        stroke: #00adef;
      }

      .cls-4 {
        fill: #00adef;
      }
    </style>
    <clipPath id="clippath">
      <rect class="cls-2" x="1.48" y="3.19" width="374" height="66"/>
    </clipPath>
  </defs>
  <g>
    <path class="cls-4" d="M80.91,42.19h-3.77v-9.99h3.77c1.48,0,2.64.46,3.49,1.4.84.93,1.27,2.13,1.27,3.6s-.42,2.67-1.27,3.6c-.85.93-2.01,1.39-3.49,1.39ZM78.21,41.19h2.7c1.16,0,2.06-.36,2.69-1.09.63-.73.94-1.7.94-2.92s-.31-2.21-.94-2.92-1.52-1.08-2.69-1.08h-2.7v8.01Z"/>
    <path class="cls-4" d="M94.94,42.19h-7.04v-9.99h6.89v.99h-5.82v3.21h5.07v.97h-5.07v3.83h5.97v.99Z"/>
    <path class="cls-4" d="M100.08,32.02c1.51,0,2.7.56,3.58,1.68l-.83.63c-.69-.88-1.63-1.32-2.83-1.32-.63,0-1.16.13-1.58.4s-.63.68-.63,1.24c0,.23.04.43.14.62s.19.32.31.43c.12.11.3.21.55.32.25.11.46.18.63.23.17.05.43.12.78.21.47.12.84.22,1.1.3s.58.2.95.37c.37.17.65.34.85.52.19.19.36.43.51.74s.22.65.22,1.03c0,.9-.34,1.62-1.01,2.16s-1.56.81-2.65.81c-.86,0-1.62-.17-2.29-.51s-1.19-.8-1.58-1.39l.92-.65c.33.52.77.91,1.31,1.17.54.26,1.12.39,1.75.39.74,0,1.33-.17,1.79-.52.45-.35.67-.82.67-1.42,0-.65-.33-1.12-1-1.42-.32-.13-.95-.3-1.88-.53-.46-.11-.85-.22-1.16-.33-.31-.11-.64-.27-.97-.47-.33-.21-.58-.47-.75-.79-.17-.32-.25-.7-.25-1.14,0-.85.31-1.52.95-2.01.63-.49,1.43-.74,2.42-.74Z"/>
    <path class="cls-4" d="M113.91,33.86l-.83.65c-.68-.99-1.66-1.49-2.92-1.49-1.11,0-2,.38-2.67,1.13-.67.75-1.01,1.76-1.01,3.02s.33,2.29,1.01,3.04c.67.76,1.55,1.14,2.64,1.14,1.29,0,2.27-.5,2.96-1.5l.87.65c-.9,1.24-2.17,1.86-3.79,1.86-1.44,0-2.6-.49-3.48-1.46-.88-.98-1.32-2.21-1.32-3.71s.44-2.74,1.32-3.71c.88-.98,2.03-1.46,3.46-1.46,1.59,0,2.84.62,3.77,1.84Z"/>
    <path class="cls-4" d="M124.23,42.19h-1.19l-1.21-3h-4.75l-1.22,3h-1.11l4.14-9.99h1.2l4.14,9.99ZM121.44,38.19l-1.95-4.93-2.01,4.93h3.96Z"/>
    <path class="cls-4" d="M133.6,42.19h-1.2l-2.26-4.23h-3.23v4.23h-1.05v-9.99h4.26c.97,0,1.75.25,2.33.77.58.51.88,1.19.88,2.05,0,.68-.19,1.26-.57,1.73-.38.47-.9.82-1.55,1.03l2.39,4.41ZM132.22,35.09c0-.58-.19-1.04-.58-1.39-.39-.34-.9-.52-1.55-.52h-3.18v3.78h3.23c.64,0,1.15-.17,1.52-.52s.56-.8.56-1.36Z"/>
    <path class="cls-4" d="M139.81,32.02c1.59,0,2.84.62,3.75,1.84l-.84.63c-.67-.98-1.65-1.47-2.94-1.47-1.12,0-2.01.38-2.66,1.14-.66.76-.98,1.77-.98,3.02s.33,2.26.99,3.03c.66.77,1.55,1.16,2.69,1.16.97,0,1.77-.29,2.4-.87.63-.58.98-1.35,1.04-2.32h-3.09v-.99h4.16c.03.18.04.39.04.63,0,1.28-.41,2.36-1.23,3.24-.82.88-1.92,1.32-3.3,1.32-1.45,0-2.62-.49-3.5-1.47-.88-.98-1.32-2.22-1.32-3.72s.44-2.74,1.32-3.71c.88-.97,2.04-1.46,3.48-1.46Z"/>
    <path class="cls-4" d="M154.71,42.19h-1.19l-1.21-3h-4.75l-1.22,3h-1.11l4.14-9.99h1.2l4.14,9.99ZM151.92,38.19l-1.95-4.93-2.01,4.93h3.96Z"/>
    <path class="cls-4" d="M168.66,42.19h-1.19l-1.21-3h-4.75l-1.22,3h-1.11l4.14-9.99h1.2l4.14,9.99ZM165.87,38.19l-1.95-4.93-2.01,4.93h3.96Z"/>
    <path class="cls-4" d="M176.87,33.01c.59.54.89,1.26.89,2.17s-.3,1.63-.89,2.17c-.6.54-1.44.81-2.54.81h-2.98v4.02h-1.05v-9.99h4.04c1.1,0,1.95.27,2.54.81ZM171.34,37.18h3c.77,0,1.35-.18,1.73-.53.38-.35.58-.84.58-1.46s-.19-1.11-.58-1.46c-.39-.35-.96-.53-1.73-.53h-3v3.99Z"/>
    <path class="cls-4" d="M188.62,37.19c0,1.5-.44,2.74-1.32,3.71-.88.97-2.04,1.46-3.48,1.46s-2.6-.49-3.48-1.46c-.88-.98-1.32-2.21-1.32-3.71s.44-2.75,1.32-3.72c.88-.97,2.04-1.46,3.48-1.46s2.6.49,3.48,1.46c.88.97,1.32,2.21,1.32,3.72ZM186.5,40.21c.67-.76,1-1.77,1-3.02s-.33-2.26-1-3.02-1.56-1.15-2.68-1.15-2.02.38-2.69,1.14c-.66.76-.99,1.77-.99,3.03s.33,2.26.99,3.02c.66.77,1.55,1.15,2.69,1.15s2.01-.38,2.68-1.15Z"/>
    <path class="cls-4" d="M198.57,42.19h-1.2l-2.26-4.23h-3.23v4.23h-1.05v-9.99h4.26c.97,0,1.75.25,2.33.77.58.51.88,1.19.88,2.05,0,.68-.19,1.26-.57,1.73-.38.47-.9.82-1.55,1.03l2.39,4.41ZM197.19,35.09c0-.58-.19-1.04-.58-1.39-.39-.34-.9-.52-1.55-.52h-3.18v3.78h3.23c.64,0,1.15-.17,1.52-.52s.56-.8.56-1.36Z"/>
    <path class="cls-4" d="M207.43,33.19h-3.51v9h-1.06v-9h-3.5v-.99h8.07v.99Z"/>
    <path class="cls-4" d="M216.51,42.19h-1.19l-1.21-3h-4.75l-1.22,3h-1.11l4.14-9.99h1.2l4.14,9.99ZM213.72,38.19l-1.95-4.93-2.01,4.93h3.96Z"/>
    <path class="cls-4" d="M225.94,33.86l-.83.65c-.68-.99-1.66-1.49-2.92-1.49-1.11,0-2,.38-2.67,1.13-.67.75-1.01,1.76-1.01,3.02s.33,2.29,1.01,3.04c.67.76,1.55,1.14,2.64,1.14,1.29,0,2.27-.5,2.96-1.5l.87.65c-.9,1.24-2.17,1.86-3.79,1.86-1.44,0-2.6-.49-3.48-1.46-.88-.98-1.32-2.21-1.32-3.71s.44-2.74,1.32-3.71c.88-.98,2.03-1.46,3.46-1.46,1.59,0,2.84.62,3.77,1.84Z"/>
    <path class="cls-4" d="M229.05,42.19h-1.05v-9.99h1.05v9.99Z"/>
    <path class="cls-4" d="M240.85,37.19c0,1.5-.44,2.74-1.32,3.71-.88.97-2.04,1.46-3.48,1.46s-2.6-.49-3.48-1.46c-.88-.98-1.32-2.21-1.32-3.71s.44-2.75,1.32-3.72c.88-.97,2.04-1.46,3.48-1.46s2.6.49,3.48,1.46c.88.97,1.32,2.21,1.32,3.72ZM238.73,40.21c.67-.76,1-1.77,1-3.02s-.33-2.26-1-3.02-1.56-1.15-2.68-1.15-2.02.38-2.69,1.14c-.66.76-.99,1.77-.99,3.03s.33,2.26.99,3.02c.66.77,1.55,1.15,2.69,1.15s2.01-.38,2.68-1.15ZM235.63,31.6l-.41-.44c.55-.55,1-1.13,1.35-1.74l1.04.17c-.14.32-.4.67-.78,1.05s-.78.7-1.2.96Z"/>
    <path class="cls-4" d="M251.05,42.19h-1.23l-5.76-8.73v8.73h-1.01v-9.99h1.35l5.62,8.52v-8.52h1.02v9.99Z"/>
    <path class="cls-4" d="M266.22,42.19h-1.19l-1.21-3h-4.75l-1.22,3h-1.11l4.14-9.99h1.2l4.14,9.99ZM263.43,38.19l-1.95-4.93-2.01,4.93h3.96Z"/>
    <path class="cls-4" d="M280.86,37.19c0,1.5-.44,2.74-1.32,3.71-.88.97-2.04,1.46-3.48,1.46s-2.6-.49-3.48-1.46c-.88-.98-1.32-2.21-1.32-3.71s.44-2.75,1.32-3.72c.88-.97,2.04-1.46,3.48-1.46s2.6.49,3.48,1.46c.88.97,1.32,2.21,1.32,3.72ZM278.73,40.21c.67-.76,1-1.77,1-3.02s-.33-2.26-1-3.02-1.56-1.15-2.68-1.15-2.02.38-2.69,1.14c-.66.76-.99,1.77-.99,3.03s.33,2.26.99,3.02c.66.77,1.55,1.15,2.69,1.15s2.01-.38,2.68-1.15Z"/>
    <path class="cls-4" d="M286.83,42.19h-3.77v-9.99h3.77c1.48,0,2.64.46,3.49,1.4.84.93,1.27,2.13,1.27,3.6s-.42,2.67-1.27,3.6c-.85.93-2.01,1.39-3.49,1.39ZM284.13,41.19h2.7c1.16,0,2.06-.36,2.69-1.09.63-.73.94-1.7.94-2.92s-.31-2.21-.94-2.92-1.52-1.08-2.69-1.08h-2.7v8.01Z"/>
    <path class="cls-4" d="M296.76,32.02c1.51,0,2.7.56,3.58,1.68l-.83.63c-.69-.88-1.63-1.32-2.83-1.32-.63,0-1.16.13-1.58.4s-.63.68-.63,1.24c0,.23.04.43.14.62s.19.32.31.43c.12.11.3.21.55.32.25.11.46.18.63.23.17.05.43.12.78.21.47.12.84.22,1.1.3s.58.2.95.37c.37.17.65.34.85.52.19.19.36.43.51.74s.22.65.22,1.03c0,.9-.34,1.62-1.01,2.16s-1.56.81-2.65.81c-.86,0-1.62-.17-2.29-.51s-1.19-.8-1.58-1.39l.92-.65c.33.52.77.91,1.31,1.17.54.26,1.12.39,1.75.39.74,0,1.33-.17,1.79-.52.45-.35.67-.82.67-1.42,0-.65-.33-1.12-1-1.42-.32-.13-.95-.3-1.88-.53-.46-.11-.85-.22-1.16-.33-.31-.11-.64-.27-.97-.47-.33-.21-.58-.47-.75-.79-.17-.32-.25-.7-.25-1.14,0-.85.31-1.52.95-2.01.63-.49,1.43-.74,2.42-.74Z"/>
  </g>
  <g class="cls-1">
    <rect class="cls-3" x="1.98" y="3.69" width="373" height="65" rx="30" ry="30"/>
  </g>
</svg>