<?xml version="1.0" encoding="UTF-8"?>
<svg id="Layer_1" data-name="Layer 1" xmlns="http://www.w3.org/2000/svg" xmlns:xlink="http://www.w3.org/1999/xlink" version="1.1" viewBox="0 0 373.79 66.7">
  <defs>
    <style>
      .cls-1 {
        clip-path: url(#clippath);
      }

      .cls-2, .cls-3 {
        fill: none;
      }

      .cls-2, .cls-4 {
        stroke-width: 0px;
      }

      .cls-3 {
        stroke: #fff;
      }

      .cls-4 {
        fill: #fff;
      }
    </style>
    <clipPath id="clippath">
      <rect class="cls-2" x="-.58" y=".43" width="374" height="66"/>
    </clipPath>
  </defs>
  <g>
    <path class="cls-4" d="M122.6,39.43v-9.99h3.77c3.03,0,4.75,2.13,4.75,4.99s-1.73,5-4.75,5h-3.77ZM126.36,38.44c2.35,0,3.63-1.6,3.63-4s-1.27-4-3.63-4h-2.7v8.01h2.7Z"/>
    <path class="cls-4" d="M133.35,39.43v-9.99h7.03v.99h-5.97v3.21h5.07v.98h-5.07v3.82h5.97v.99h-7.03Z"/>
    <path class="cls-4" d="M149.18,30.94l-.83.63c-.64-.83-1.63-1.32-2.83-1.32-1.12,0-2.21.43-2.21,1.63s1.05,1.46,2.4,1.8c1.84.47,3.63.96,3.63,2.96,0,1.8-1.47,2.97-3.66,2.97-1.78,0-3.12-.78-3.87-1.9l.92-.65c.69,1.08,1.86,1.56,3.06,1.56,1.45,0,2.46-.71,2.46-1.94,0-1.32-1.2-1.56-2.88-1.95-1.56-.36-3.13-.9-3.13-2.73s1.47-2.75,3.36-2.75c1.5,0,2.76.63,3.58,1.68Z"/>
    <path class="cls-4" d="M158.6,31.75c-.63-.92-1.6-1.49-2.93-1.49-2.22,0-3.67,1.62-3.67,4.16s1.47,4.18,3.65,4.18c1.27,0,2.32-.57,2.96-1.5l.87.65c-.84,1.15-2.16,1.86-3.79,1.86-2.91,0-4.8-2.22-4.8-5.17s1.89-5.17,4.79-5.17c1.69,0,2.92.72,3.76,1.85l-.82.64Z"/>
    <path class="cls-4" d="M168.56,39.43l-1.22-3h-4.75l-1.21,3h-1.11l4.14-9.99h1.2l4.14,9.99h-1.18ZM165,30.5l-2.01,4.93h3.96l-1.95-4.93Z"/>
    <path class="cls-4" d="M177.92,39.43l-2.27-4.23h-3.22v4.23h-1.05v-9.99h4.26c1.92,0,3.21,1.09,3.21,2.82,0,1.38-.84,2.36-2.11,2.76l2.38,4.41h-1.2ZM175.61,30.43h-3.18v3.78h3.22c1.31,0,2.08-.76,2.08-1.88s-.84-1.91-2.13-1.91Z"/>
    <path class="cls-4" d="M189.08,31.1l-.84.63c-.63-.92-1.65-1.47-2.94-1.47-2.25,0-3.65,1.68-3.65,4.16s1.4,4.18,3.67,4.18c1.92,0,3.31-1.23,3.44-3.19h-3.09v-.99h4.15c.03.18.04.39.04.63,0,2.45-1.67,4.56-4.53,4.56s-4.81-2.23-4.81-5.19,1.89-5.16,4.8-5.16c1.64,0,2.91.71,3.75,1.85Z"/>
    <path class="cls-4" d="M199.04,39.43l-1.22-3h-4.75l-1.21,3h-1.11l4.14-9.99h1.2l4.14,9.99h-1.18ZM195.48,30.5l-2.01,4.93h3.96l-1.95-4.93Z"/>
    <path class="cls-4" d="M212.99,31.75c-.63-.92-1.6-1.49-2.93-1.49-2.22,0-3.67,1.62-3.67,4.16s1.47,4.18,3.65,4.18c1.27,0,2.32-.57,2.96-1.5l.87.65c-.84,1.15-2.16,1.86-3.79,1.86-2.91,0-4.8-2.22-4.8-5.17s1.89-5.17,4.79-5.17c1.69,0,2.92.72,3.76,1.85l-.82.64Z"/>
    <path class="cls-4" d="M222.95,39.43l-1.22-3h-4.75l-1.21,3h-1.11l4.14-9.99h1.2l4.14,9.99h-1.18ZM219.39,30.5l-2.01,4.93h3.96l-1.95-4.93Z"/>
    <path class="cls-4" d="M232.31,39.43l-2.27-4.23h-3.22v4.23h-1.05v-9.99h4.26c1.92,0,3.21,1.09,3.21,2.82,0,1.38-.84,2.36-2.11,2.76l2.38,4.41h-1.2ZM230,30.43h-3.18v3.78h3.22c1.31,0,2.08-.76,2.08-1.88s-.84-1.91-2.13-1.91Z"/>
    <path class="cls-4" d="M238.86,30.43v9h-1.06v-9h-3.5v-.99h8.07v.99h-3.51Z"/>
    <path class="cls-4" d="M250.28,39.43l-1.22-3h-4.75l-1.21,3h-1.11l4.14-9.99h1.2l4.14,9.99h-1.18ZM246.72,30.5l-2.01,4.93h3.96l-1.95-4.93Z"/>
  </g>
  <g class="cls-1">
    <rect class="cls-3" x="-.08" y=".93" width="373" height="65" rx="30" ry="30"/>
  </g>
</svg>