<?xml version="1.0" encoding="UTF-8"?>
<svg id="Layer_1" data-name="Layer 1" xmlns="http://www.w3.org/2000/svg" xmlns:xlink="http://www.w3.org/1999/xlink" version="1.1" viewBox="0 0 379.26 68.89">
  <defs>
    <style>
      .cls-1 {
        clip-path: url(#clippath);
      }

      .cls-2, .cls-3 {
        fill: none;
      }

      .cls-2, .cls-4 {
        stroke-width: 0px;
      }

      .cls-3 {
        stroke: #00adef;
      }

      .cls-4 {
        fill: #00adef;
      }
    </style>
    <clipPath id="clippath">
      <rect class="cls-2" x="2.33" y="1.48" width="374" height="66"/>
    </clipPath>
  </defs>
  <g>
    <path class="cls-4" d="M104.33,42.08v-11.32h4.27c3.43,0,5.39,2.41,5.39,5.66s-1.96,5.66-5.39,5.66h-4.27ZM108.6,40.96c2.67,0,4.11-1.82,4.11-4.54s-1.44-4.54-4.11-4.54h-3.06v9.08h3.06Z"/>
    <path class="cls-4" d="M116.52,42.08v-11.32h7.97v1.12h-6.77v3.64h5.75v1.11h-5.75v4.33h6.77v1.12h-7.97Z"/>
    <path class="cls-4" d="M134.46,32.46l-.94.71c-.73-.93-1.85-1.5-3.21-1.5-1.27,0-2.5.49-2.5,1.85s1.19,1.65,2.72,2.04c2.09.53,4.11,1.09,4.11,3.35,0,2.04-1.67,3.37-4.15,3.37-2.02,0-3.54-.88-4.39-2.16l1.04-.73c.78,1.22,2.11,1.77,3.47,1.77,1.65,0,2.79-.8,2.79-2.19,0-1.5-1.36-1.77-3.26-2.21-1.77-.41-3.55-1.02-3.55-3.09s1.67-3.11,3.81-3.11c1.7,0,3.13.71,4.06,1.9Z"/>
    <path class="cls-4" d="M145.13,33.38c-.71-1.04-1.82-1.68-3.31-1.68-2.52,0-4.16,1.84-4.16,4.71s1.67,4.74,4.13,4.74c1.44,0,2.63-.65,3.35-1.7l.99.73c-.95,1.31-2.45,2.11-4.3,2.11-3.3,0-5.44-2.52-5.44-5.86s2.14-5.86,5.42-5.86c1.92,0,3.31.82,4.27,2.09l-.93.73Z"/>
    <path class="cls-4" d="M156.42,42.08l-1.38-3.4h-5.39l-1.38,3.4h-1.26l4.69-11.32h1.36l4.69,11.32h-1.34ZM152.39,31.97l-2.28,5.59h4.49l-2.21-5.59Z"/>
    <path class="cls-4" d="M167.03,42.08l-2.57-4.79h-3.65v4.79h-1.19v-11.32h4.83c2.18,0,3.64,1.24,3.64,3.2,0,1.56-.95,2.67-2.4,3.13l2.7,5h-1.36ZM164.41,31.88h-3.6v4.28h3.65c1.48,0,2.36-.87,2.36-2.12s-.95-2.16-2.41-2.16Z"/>
    <path class="cls-4" d="M179.68,32.65l-.95.71c-.71-1.04-1.87-1.67-3.33-1.67-2.55,0-4.13,1.9-4.13,4.71s1.58,4.74,4.16,4.74c2.18,0,3.76-1.39,3.89-3.62h-3.5v-1.12h4.71c.03.2.05.44.05.71,0,2.77-1.89,5.17-5.13,5.17s-5.46-2.53-5.46-5.88,2.14-5.85,5.44-5.85c1.85,0,3.3.8,4.25,2.09Z"/>
    <path class="cls-4" d="M190.96,42.08l-1.38-3.4h-5.39l-1.38,3.4h-1.26l4.69-11.32h1.36l4.69,11.32h-1.34ZM186.94,31.97l-2.28,5.59h4.49l-2.21-5.59Z"/>
    <path class="cls-4" d="M198.75,42.08v-11.32h1.19v10.2h6.48v1.12h-7.67Z"/>
    <path class="cls-4" d="M216.31,42.08l-1.38-3.4h-5.39l-1.38,3.4h-1.26l4.69-11.32h1.36l4.69,11.32h-1.34ZM212.28,31.97l-2.28,5.59h4.49l-2.21-5.59Z"/>
    <path class="cls-4" d="M232.12,33.38c-.71-1.04-1.82-1.68-3.31-1.68-2.52,0-4.17,1.84-4.17,4.71s1.67,4.74,4.13,4.74c1.45,0,2.63-.65,3.35-1.7l.99.73c-.95,1.31-2.45,2.11-4.3,2.11-3.3,0-5.44-2.52-5.44-5.86s2.14-5.86,5.42-5.86c1.92,0,3.32.82,4.27,2.09l-.93.73Z"/>
    <path class="cls-4" d="M243.41,42.08l-1.38-3.4h-5.39l-1.38,3.4h-1.26l4.69-11.32h1.36l4.69,11.32h-1.34ZM239.38,31.97l-2.28,5.59h4.49l-2.21-5.59Z"/>
    <path class="cls-4" d="M254.02,42.08l-2.57-4.79h-3.66v4.79h-1.19v-11.32h4.83c2.18,0,3.64,1.24,3.64,3.2,0,1.56-.95,2.67-2.4,3.13l2.7,5h-1.36ZM251.4,31.88h-3.6v4.28h3.66c1.48,0,2.36-.87,2.36-2.12s-.95-2.16-2.41-2.16Z"/>
    <path class="cls-4" d="M261.45,31.88v10.2h-1.21v-10.2h-3.96v-1.12h9.14v1.12h-3.98Z"/>
    <path class="cls-4" d="M274.38,42.08l-1.38-3.4h-5.39l-1.38,3.4h-1.26l4.69-11.32h1.36l4.69,11.32h-1.34ZM270.35,31.97l-2.28,5.59h4.49l-2.21-5.59Z"/>
  </g>
  <g class="cls-1">
    <rect class="cls-3" x="2.83" y="1.98" width="373" height="65" rx="30" ry="30"/>
  </g>
</svg>