<?xml version="1.0" encoding="UTF-8"?>
<svg id="Layer_1" data-name="Layer 1" xmlns="http://www.w3.org/2000/svg" version="1.1" viewBox="0 0 285.19 87.19">
  <defs>
    <style>
      .cls-1 {
        fill: none;
      }

      .cls-1, .cls-2 {
        stroke-width: 0px;
      }

      .cls-2 {
        fill: #fff;
      }
    </style>
  </defs>
  <g>
    <path class="cls-2" d="M4.93,5.19v7.28h11.46v2.21H4.93v10.91h-2.41V2.94h15.91v2.24H4.93Z"/>
    <path class="cls-2" d="M22.75,25.59V2.94h2.38v22.64h-2.38Z"/>
    <path class="cls-2" d="M46.71,25.59l-12.85-19.79v19.79h-2.28V2.94h3.06l12.54,19.31V2.94h2.31v22.64h-2.79Z"/>
    <path class="cls-2" d="M70.75,6.34l-1.87,1.43c-1.46-1.87-3.71-2.99-6.43-2.99-2.55,0-5,.99-5,3.71s2.38,3.3,5.44,4.08c4.18,1.05,8.23,2.18,8.23,6.7,0,4.08-3.33,6.73-8.29,6.73-4.05,0-7.07-1.77-8.77-4.32l2.07-1.46c1.56,2.45,4.22,3.54,6.94,3.54,3.3,0,5.58-1.6,5.58-4.39,0-2.99-2.72-3.54-6.53-4.42-3.54-.82-7.1-2.04-7.1-6.19s3.33-6.22,7.62-6.22c3.4,0,6.26,1.43,8.12,3.81Z"/>
    <path class="cls-2" d="M92.1,25.59l-2.75-6.8h-10.78l-2.75,6.8h-2.52l9.38-22.64h2.72l9.38,22.64h-2.69ZM84.05,5.36l-4.56,11.18h8.98l-4.42-11.18Z"/>
    <path class="cls-2" d="M107.27,4.03V1.31h2.18v2.72h-2.18ZM107.27,25.59V8.08h2.18v17.51h-2.18Z"/>
    <path class="cls-2" d="M115.09,25.59V8.08h2.18v3.2c1.5-2.31,3.5-3.6,6.26-3.6,3.71,0,6.22,2.35,6.22,6.73v11.18h-2.18v-10.67c0-2.31-.68-5.13-4.32-5.13-3.43,0-5.98,2.55-5.98,6.19v9.62h-2.18Z"/>
  </g>
  <g>
    <path class="cls-2" d="M31.69,85.68L9.01,50.77v34.92h-4.02v-39.96h5.4l22.14,34.08v-34.08h4.08v39.96h-4.92Z"/>
    <path class="cls-2" d="M79.56,70.81c0,9.42-6.9,15.6-16.08,15.6s-15.96-6.18-15.96-15.6v-25.08h4.2v25.08c0,6.9,4.5,11.58,11.76,11.58s11.88-4.68,11.88-11.58v-25.08h4.2v25.08Z"/>
    <path class="cls-2" d="M126.96,85.68v-35.58l-14.22,35.58h-3.9l-14.28-35.7v35.7h-4.08v-39.96h6.54l13.86,34.68,13.92-34.68h6.3v39.96h-4.14Z"/>
    <path class="cls-2" d="M159.78,85.68h-17.28v-39.96h15.9c8.04,0,12.66,3.36,12.66,9.3,0,4.14-2.22,7.02-5.22,8.7,4.62,1.92,6.96,5.76,6.96,10.56,0,6.18-4.08,11.4-13.02,11.4ZM158.4,49.69h-11.7v12.84h12.12c5.16,0,7.98-2.76,7.98-6.9s-2.76-5.94-8.4-5.94ZM160.08,66.43h-13.38v15.3h13.08c5.58,0,8.58-2.82,8.58-7.56,0-4.44-2.58-7.74-8.28-7.74Z"/>
    <path class="cls-2" d="M181.74,85.68v-39.96h28.14v3.96h-23.88v12.84h20.28v3.9h-20.28v15.3h23.88v3.96h-28.14Z"/>
    <path class="cls-2" d="M245.1,85.68l-9.06-16.92h-12.9v16.92h-4.2v-39.96h17.04c7.68,0,12.84,4.38,12.84,11.28,0,5.52-3.36,9.42-8.46,11.04l9.54,17.64h-4.8ZM235.86,49.69h-12.72v15.12h12.9c5.22,0,8.34-3.06,8.34-7.5s-3.36-7.62-8.52-7.62Z"/>
    <path class="cls-2" d="M284.22,51.73l-3.3,2.52c-2.58-3.3-6.54-5.28-11.34-5.28-4.5,0-8.82,1.74-8.82,6.54s4.2,5.82,9.6,7.2c7.38,1.86,14.52,3.84,14.52,11.82,0,7.2-5.88,11.88-14.64,11.88-7.14,0-12.48-3.12-15.48-7.62l3.66-2.58c2.76,4.32,7.44,6.24,12.24,6.24,5.82,0,9.84-2.82,9.84-7.74,0-5.28-4.8-6.24-11.52-7.8-6.24-1.44-12.54-3.6-12.54-10.92s5.88-10.98,13.44-10.98c6,0,11.04,2.52,14.34,6.72Z"/>
  </g>
  <rect class="cls-1" x="521.51" y="334.75" width="294" height="87.3"/>
</svg>