<?xml version="1.0" encoding="UTF-8"?>
<svg id="Layer_1" data-name="Layer 1" xmlns="http://www.w3.org/2000/svg" xmlns:xlink="http://www.w3.org/1999/xlink" version="1.1" viewBox="0 0 303.33 96.67">
  <defs>
    <style>
      .cls-1 {
        clip-path: url(#clippath);
      }

      .cls-2 {
        fill: none;
      }

      .cls-2, .cls-3 {
        stroke-width: 0px;
      }

      .cls-3 {
        fill: #fff;
      }
    </style>
    <clipPath id="clippath">
      <rect class="cls-2" x="2.62" y="2" width="373.88" height="108.3"/>
    </clipPath>
  </defs>
  <g>
    <path class="cls-3" d="M19.22,16.8v7.27h11.46v2.21h-11.46v10.91h-2.41V14.56h15.91v2.24h-13.5Z"/>
    <path class="cls-3" d="M37.04,37.2V14.56h2.38v22.64h-2.38Z"/>
    <path class="cls-3" d="M61,37.2l-12.85-19.79v19.79h-2.28V14.56h3.06l12.54,19.31V14.56h2.31v22.64h-2.79Z"/>
    <path class="cls-3" d="M85.04,17.96l-1.87,1.43c-1.46-1.87-3.71-2.99-6.43-2.99-2.55,0-5,.99-5,3.71s2.38,3.3,5.44,4.08c4.18,1.05,8.23,2.18,8.23,6.7,0,4.08-3.33,6.73-8.29,6.73-4.05,0-7.07-1.77-8.77-4.32l2.07-1.46c1.56,2.45,4.22,3.54,6.94,3.54,3.3,0,5.58-1.6,5.58-4.39,0-2.99-2.72-3.54-6.53-4.42-3.54-.82-7.1-2.04-7.1-6.19s3.33-6.22,7.62-6.22c3.4,0,6.26,1.43,8.12,3.81Z"/>
    <path class="cls-3" d="M106.39,37.2l-2.75-6.8h-10.78l-2.75,6.8h-2.52l9.38-22.64h2.72l9.38,22.64h-2.69ZM98.34,16.97l-4.56,11.18h8.98l-4.42-11.18Z"/>
    <path class="cls-3" d="M136.86,28.94h-14.14c.17,4.08,2.69,6.53,6.43,6.53,2.11,0,3.88-.78,5.3-2.38l1.53,1.53c-1.77,1.94-3.98,2.99-6.83,2.99-5.47,0-8.74-3.91-8.74-9.11s3.2-9.21,8.36-9.21,8.16,3.88,8.16,8.63c0,.51-.03.82-.07,1.02ZM134.61,27.07c-.34-3.77-2.89-5.71-5.92-5.71-3.4,0-5.64,2.41-5.92,5.71h11.83Z"/>
    <path class="cls-3" d="M141.18,37.2v-17.51h2.18v3.2c1.5-2.31,3.5-3.6,6.26-3.6,3.71,0,6.22,2.35,6.22,6.73v11.18h-2.18v-10.67c0-2.31-.68-5.13-4.32-5.13-3.43,0-5.98,2.55-5.98,6.19v9.62h-2.18Z"/>
  </g>
  <g class="cls-1">
    <g>
      <path class="cls-3" d="M45.98,97.3l-22.68-34.92v34.92h-4.02v-39.96h5.4l22.14,34.08v-34.08h4.08v39.96h-4.92Z"/>
      <path class="cls-3" d="M93.85,82.42c0,9.42-6.9,15.6-16.08,15.6s-15.96-6.18-15.96-15.6v-25.08h4.2v25.08c0,6.9,4.5,11.58,11.76,11.58s11.88-4.68,11.88-11.58v-25.08h4.2v25.08ZM75.26,53.2c1.98-1.98,4.26-4.98,5.4-6.96l4.14.66c-1.14,2.58-4.56,6-7.92,8.04l-1.62-1.74Z"/>
      <path class="cls-3" d="M141.25,97.3v-35.58l-14.22,35.58h-3.9l-14.28-35.7v35.7h-4.08v-39.96h6.54l13.86,34.68,13.92-34.68h6.3v39.96h-4.14Z"/>
      <path class="cls-3" d="M156.8,97.3v-39.96h28.14v3.96h-23.88v12.84h20.28v3.9h-20.28v15.3h23.88v3.96h-28.14Z"/>
      <path class="cls-3" d="M220.15,97.3l-9.06-16.92h-12.9v16.92h-4.2v-39.96h17.04c7.68,0,12.84,4.38,12.84,11.28,0,5.52-3.36,9.42-8.46,11.04l9.54,17.64h-4.8ZM210.91,61.3h-12.72v15.12h12.9c5.22,0,8.34-3.06,8.34-7.5s-3.36-7.62-8.52-7.62Z"/>
      <path class="cls-3" d="M249.79,98.02c-11.64,0-19.2-8.88-19.2-20.7s7.56-20.7,19.2-20.7,19.2,8.82,19.2,20.7-7.56,20.7-19.2,20.7ZM249.79,60.64c-9.12,0-14.7,6.72-14.7,16.68s5.58,16.68,14.7,16.68,14.7-6.78,14.7-16.68-5.64-16.68-14.7-16.68Z"/>
      <path class="cls-3" d="M303.91,63.34l-3.3,2.52c-2.58-3.3-6.54-5.28-11.34-5.28-4.5,0-8.82,1.74-8.82,6.54s4.2,5.82,9.6,7.2c7.38,1.86,14.52,3.84,14.52,11.82,0,7.2-5.88,11.88-14.64,11.88-7.14,0-12.48-3.12-15.48-7.62l3.66-2.58c2.76,4.32,7.44,6.24,12.24,6.24,5.82,0,9.84-2.82,9.84-7.74,0-5.28-4.8-6.24-11.52-7.8-6.24-1.44-12.54-3.6-12.54-10.92s5.88-10.98,13.44-10.98c6,0,11.04,2.52,14.34,6.72Z"/>
    </g>
  </g>
</svg>